<?xml version="1.0" encoding="utf-8"?>
<svg viewBox="0 0 500 500" xmlns="http://www.w3.org/2000/svg">
  <g transform="matrix(0.061545, 0, 0, -0.060637, -66.04023, 556.356018)" fill="#000000" stroke="none" style="">
    <path d="M4827 9228 c-136 -12 -168 -24 -190 -70 -10 -20 -31 -103 -47 -185 -40 -206 -50 -242 -69 -247 -51 -15 -226 -46 -236 -43 -6 3 -62 81 -124 174 -112 169 -145 203 -194 203 -96 0 -689 -223 -767 -289 l-35 -29 0 -257 0 -258 -100 -33 c-119 -40 -97 -47 -283 88 -73 53 -147 100 -163 103 -57 13 -112 -27 -309 -224 -216 -217 -385 -421 -396 -478 -8 -44 12 -85 124 -248 39 -58 72 -110 72 -115 0 -16 -178 -277 -193 -283 -9 -3 -79 7 -157 24 -163 34 -219 36 -249 12 -26 -22 -134 -259 -196 -429 -50 -137 -115 -377 -115 -422 0 -15 7 -37 15 -49 17 -25 237 -141 440 -233 77 -35 141 -65 143 -66 2 -1 -5 -60 -17 -131 -40 -257 -46 -343 -46 -648 1 -300 10 -428 50 -680 8 -49 15 -100 15 -112 l0 -23 -231 0 -231 0 -29 -29 c-34 -34 -37 -69 -10 -102 17 -21 31 -25 113 -31 51 -3 138 -7 193 -7 120 -2 206 -20 300 -66 87 -42 134 -81 240 -205 92 -106 160 -158 260 -195 l65 -25 0 88 c1 236 114 486 319 704 85 91 130 126 140 110 3 -6 17 -73 30 -149 72 -424 127 -578 281 -781 104 -139 188 -208 630 -527 91 -66 201 -155 246 -200 81 -80 163 -190 151 -202 -12 -11 -259 87 -432 172 -343 167 -577 351 -720 565 -129 192 -146 255 -154 565 l-6 240 -38 -61 c-105 -173 -127 -308 -82 -509 101 -448 627 -884 1358 -1125 l97 -32 0 -74 0 -74 -27 6 c-60 13 -296 96 -381 133 -576 254 -981 595 -1059 895 -27 105 -86 135 -143 74 -25 -28 -25 -59 1 -139 50 -151 146 -297 294 -444 149 -149 322 -270 615 -430 69 -37 152 -83 185 -101 258 -142 351 -430 196 -606 -46 -53 -111 -80 -192 -80 -158 0 -272 111 -271 265 1 72 19 125 63 180 17 21 29 39 28 41 -2 1 -74 40 -159 86 -126 67 -344 204 -456 285 -21 15 -22 14 -28 -23 -22 -138 -190 -231 -340 -188 -78 23 -148 91 -170 167 -33 110 -11 198 71 277 l55 54 -41 46 c-109 125 -285 373 -400 565 -29 48 -58 87 -64 87 -7 0 -30 -7 -52 -15 -129 -46 -259 23 -285 152 -15 74 -29 99 -77 144 -70 67 -91 73 -250 72 -78 -1 -150 -4 -161 -7 -21 -7 -42 -45 -42 -77 0 -28 83 -272 135 -399 79 -191 151 -335 180 -358 36 -28 65 -28 226 4 72 14 145 24 162 22 26 -3 42 -19 119 -128 49 -68 87 -131 85 -140 -2 -8 -45 -77 -95 -152 -100 -152 -111 -181 -87 -228 51 -98 522 -567 622 -619 59 -30 114 -8 267 108 159 121 153 120 276 61 l83 -41 -7 -218 c-8 -260 -11 -251 120 -311 219 -101 570 -224 675 -237 41 -5 50 -2 78 23 18 16 78 97 135 179 l103 150 39 -3 c34 -2 159 -26 205 -38 18 -5 34 -57 74 -240 29 -135 46 -177 78 -199 40 -26 242 -38 527 -31 266 6 340 14 373 44 27 24 35 47 68 207 46 219 44 213 87 225 93 26 202 41 221 31 11 -6 65 -80 122 -165 56 -85 114 -161 130 -170 40 -23 74 -20 206 20 300 90 589 211 643 269 22 24 25 34 22 93 -1 37 -7 103 -12 147 -6 44 -10 111 -10 150 l0 71 85 42 c47 23 97 42 111 42 17 0 72 -33 158 -94 151 -109 180 -126 219 -126 61 0 171 83 362 275 196 196 314 332 321 372 10 52 0 74 -96 216 -50 73 -90 141 -90 151 0 25 151 240 182 260 13 8 45 6 120 -8 57 -10 136 -23 176 -29 119 -18 123 -14 253 278 75 168 179 461 179 506 0 15 -9 37 -19 50 -19 24 -22 24 -177 22 -136 -3 -163 -6 -201 -24 -52 -25 -98 -78 -118 -136 -8 -24 -22 -63 -30 -87 -40 -113 -172 -167 -284 -116 -24 11 -45 20 -46 20 -2 0 -18 -26 -35 -57 -92 -164 -310 -473 -431 -612 l-39 -44 46 -40 c68 -60 89 -106 89 -202 0 -69 -4 -86 -27 -126 -82 -140 -255 -181 -389 -92 -46 30 -96 102 -105 149 -3 19 -8 34 -11 34 -3 0 -82 -51 -176 -113 -164 -109 -256 -164 -395 -237 l-63 -33 25 -26 c43 -45 70 -119 69 -191 -2 -155 -110 -260 -268 -260 -157 0 -267 106 -267 255 0 36 -3 65 -5 65 -3 0 -32 -7 -66 -16 -149 -38 -426 -96 -580 -121 -159 -26 -168 -29 -162 -48 14 -43 17 -137 6 -178 -40 -140 -196 -226 -335 -182 -199 63 -254 306 -110 482 72 87 152 119 424 167 536 95 687 129 880 194 553 188 1032 517 1227 842 72 121 122 264 109 315 -9 34 -57 58 -90 45 -31 -11 -51 -42 -66 -100 -25 -95 -143 -275 -251 -381 -192 -190 -486 -373 -809 -505 -165 -67 -357 -134 -386 -134 -23 0 -24 3 -24 69 l0 69 113 37 c833 275 1367 787 1367 1310 0 113 -51 256 -125 355 l-26 35 2 -220 c2 -198 1 -229 -19 -309 -25 -101 -92 -236 -161 -328 -121 -159 -367 -360 -591 -481 -143 -77 -504 -224 -529 -216 -19 7 70 131 148 209 42 41 134 116 205 165 250 175 492 361 571 440 102 102 165 192 231 331 74 155 97 236 154 554 28 158 29 160 41 160 23 0 208 -199 265 -285 117 -176 174 -348 174 -525 0 -106 -8 -103 115 -45 88 42 140 87 215 185 76 99 136 152 224 195 106 52 164 63 380 71 187 7 196 8 217 30 32 34 29 81 -5 111 -27 23 -30 23 -258 23 l-231 0 6 38 c90 566 97 903 32 1358 -14 93 -25 177 -25 186 0 10 21 24 58 38 63 25 343 163 438 216 85 47 99 66 97 123 -2 52 -65 273 -119 419 -65 173 -163 386 -190 410 -34 30 -73 29 -247 -8 -78 -17 -151 -28 -162 -26 -12 3 -56 59 -109 137 l-89 132 17 28 c9 15 51 76 92 136 116 164 123 193 67 278 -82 125 -484 544 -587 613 -82 53 -101 47 -281 -96 -65 -52 -129 -99 -142 -105 -18 -8 -39 -2 -112 33 -132 63 -127 54 -112 218 7 75 15 179 18 230 5 88 4 94 -18 118 -29 31 -76 56 -234 122 -193 81 -497 182 -550 182 -55 0 -78 -24 -191 -196 -66 -100 -121 -174 -133 -177 -22 -5 -232 31 -244 43 -5 4 -19 65 -33 136 -35 184 -61 294 -75 311 -7 8 -24 20 -38 28 -60 31 -494 45 -724 23z m408 -448 c53 -28 96 -75 120 -133 l16 -39 -73 7 c-62 6 -97 2 -213 -23 -77 -17 -159 -33 -182 -37 -42 -7 -43 -6 -43 20 0 98 75 192 180 226 47 15 144 5 195 -21z m-1360 -284 c46 -21 115 -85 115 -106 0 -9 -31 -17 -250 -59 -228 -45 -220 -44 -220 -26 0 25 28 86 57 123 15 20 51 46 87 63 77 37 141 38 211 5z m2691 -4 c83 -43 143 -139 144 -230 l0 -53 73 -33 c123 -56 295 -154 441 -252 l139 -94 44 15 c66 23 149 19 208 -9 61 -28 137 -109 153 -164 16 -54 15 -145 -3 -188 l-14 -35 94 -115 c117 -141 271 -371 351 -521 l59 -111 43 -7 c142 -21 235 -129 234 -273 -1 -109 -53 -191 -156 -244 -59 -31 -175 -31 -232 -1 -53 28 -99 74 -127 127 -31 59 -31 174 1 234 l23 43 -42 77 c-82 150 -185 309 -286 442 -153 202 -139 189 -213 201 -82 13 -138 39 -189 90 -49 50 -85 138 -78 192 5 34 2 41 -29 65 -71 57 -335 215 -472 284 l-144 71 -46 -16 c-63 -23 -166 -22 -218 2 -92 42 -150 126 -161 235 -10 102 63 226 161 273 43 20 62 23 126 20 50 -2 88 -11 116 -25z m-1109 -134 c126 -44 207 -132 238 -258 10 -39 15 -73 13 -75 -2 -3 -60 4 -129 15 -69 10 -190 29 -270 41 -85 13 -193 23 -264 23 -109 1 -146 -5 -420 -61 -165 -34 -464 -94 -665 -133 -1036 -201 -1061 -206 -1159 -262 -73 -42 -169 -135 -211 -204 -44 -74 -79 -176 -80 -233 0 -24 -2 -42 -5 -40 -4 5 -43 209 -60 315 -3 23 -2 67 4 97 28 152 127 254 291 301 54 15 1004 205 1725 345 198 39 450 88 560 110 241 48 339 52 432 19z m-152 -523 c105 -14 251 -34 325 -45 74 -11 221 -31 325 -45 494 -65 636 -86 681 -100 77 -23 150 -71 193 -125 36 -46 69 -115 59 -126 -2 -2 -144 17 -314 42 -170 25 -390 56 -489 70 -170 23 -261 37 -805 119 -446 69 -627 88 -707 76 -191 -28 -355 -145 -446 -318 -51 -98 -61 -145 -112 -518 -25 -181 -59 -424 -75 -540 -44 -321 -64 -494 -58 -501 4 -3 46 35 95 84 48 49 100 98 115 109 27 20 27 24 108 584 44 310 85 582 91 604 39 142 152 243 301 266 52 8 90 6 204 -11 314 -47 490 -73 919 -135 1161 -167 1424 -206 1475 -221 112 -33 191 -100 238 -203 40 -87 41 -179 3 -386 -17 -93 -49 -280 -71 -415 -22 -135 -60 -362 -85 -505 -80 -456 -181 -1045 -220 -1286 -39 -232 -113 -426 -215 -561 -74 -97 -232 -233 -537 -461 -129 -97 -249 -197 -547 -457 -297 -259 -404 -317 -602 -327 -164 -9 -300 32 -429 127 -81 60 -266 216 -443 373 -84 75 -282 234 -440 354 -299 227 -384 304 -454 405 -48 72 -120 222 -142 298 -9 30 -52 267 -95 525 -69 408 -169 988 -186 1080 -64 348 -90 495 -119 665 -19 113 -55 322 -81 465 -39 213 -46 275 -43 345 5 102 34 173 97 238 67 69 139 96 376 142 116 23 345 68 510 100 165 33 363 71 440 85 153 29 516 103 690 141 132 29 193 27 470 -11z m-3220 -1163 c122 -63 179 -195 141 -327 -24 -81 -100 -157 -181 -180 -175 -51 -344 72 -345 251 0 128 66 229 177 270 52 20 157 13 208 -14z m399 -1322 c27 -14 68 -46 91 -72 136 -151 84 -394 -102 -475 -62 -27 -176 -23 -243 8 -112 52 -170 144 -170 269 1 137 71 239 197 286 58 22 167 14 227 -16z m5486 14 c71 -21 159 -107 183 -178 37 -107 11 -239 -62 -314 -191 -197 -543 -43 -518 228 18 202 199 323 397 264z m61 -1170 c17 -18 46 -40 65 -50 19 -10 34 -21 34 -24 0 -3 -15 -14 -34 -24 -49 -26 -81 -63 -120 -135 l-33 -62 -17 45 c-21 55 -94 139 -136 156 -38 16 -38 24 0 40 59 24 150 141 150 192 0 7 14 -14 31 -47 16 -33 44 -74 60 -91z m-5741 123 c0 -32 79 -135 129 -167 l51 -33 -30 -15 c-40 -20 -116 -104 -132 -148 -6 -19 -14 -34 -18 -33 -3 0 -22 27 -43 60 -24 37 -59 73 -93 97 -29 20 -53 40 -54 43 0 4 13 12 30 19 41 17 102 86 126 143 18 46 34 61 34 34z m2253 -2199 c83 -59 72 -196 -18 -234 -107 -44 -203 25 -193 138 11 106 123 158 211 96z"/>
    <path d="M3260 7240 c-87 -18 -155 -67 -194 -139 -52 -96 -45 -209 20 -304 l25 -38 -51 -92 c-55 -99 -59 -132 -16 -143 45 -11 59 1 111 86 l51 85 70 -3 c82 -4 137 8 188 43 20 14 40 25 45 25 4 0 39 -25 78 -55 74 -57 109 -67 137 -39 32 32 19 58 -63 130 l-78 69 5 70 c6 90 -9 142 -58 203 -62 79 -177 122 -270 102z m113 -124 c44 -18 95 -78 102 -120 13 -68 -28 -145 -92 -172 -79 -34 -171 -6 -210 62 -75 131 61 288 200 230z"/>
    <path d="M4621 7172 c-73 -37 -98 -111 -62 -186 43 -87 144 -108 217 -44 124 109 -8 305 -155 230z"/>
    <path d="M7017 6861 c-41 -9 -94 -56 -107 -96 -25 -75 23 -163 101 -186 32 -10 46 -9 84 5 55 22 87 64 92 125 9 91 -81 172 -170 152z"/>
    <path d="M4637 6814 c-19 -36 -59 -74 -118 -111 l-46 -29 40 -44 c22 -25 52 -71 67 -102 l27 -57 37 44 c20 25 58 59 84 76 26 18 48 33 50 35 2 1 -17 29 -43 61 -25 33 -54 82 -64 108 l-19 49 -15 -30z"/>
    <path d="M5075 6663 c-41 -129 -107 -264 -187 -381 -61 -89 -248 -278 -693 -700 -455 -431 -497 -478 -580 -655 -71 -148 -88 -226 -88 -397 0 -175 19 -255 93 -405 105 -213 282 -362 504 -423 43 -12 100 -17 196 -17 152 0 236 20 323 75 26 16 50 30 53 30 10 0 -84 -114 -133 -162 -72 -69 -187 -144 -274 -178 -43 -16 -85 -30 -94 -30 -8 0 -15 -4 -15 -10 0 -12 123 -13 405 -3 l197 6 45 56 c24 31 69 106 98 166 91 185 132 332 159 575 29 245 28 243 48 75 40 -338 116 -589 232 -763 24 -37 56 -80 70 -95 l25 -27 268 0 c147 0 278 3 291 7 19 5 8 12 -61 37 -110 42 -218 110 -295 187 -66 65 -130 149 -113 149 5 0 13 -5 17 -11 11 -19 105 -56 188 -74 111 -25 271 -17 381 19 295 95 512 362 566 696 31 196 -29 453 -149 635 -62 93 -123 156 -497 514 -540 516 -642 622 -724 745 -93 139 -133 221 -180 362 l-38 113 -38 -116z m147 -884 c229 -48 397 -261 398 -505 0 -66 -33 -195 -65 -251 l-24 -45 42 25 c152 88 384 83 527 -13 229 -152 302 -429 180 -676 -132 -269 -463 -367 -753 -223 -220 109 -342 313 -396 664 -20 129 -22 128 -41 -15 -30 -230 -106 -403 -231 -528 -103 -103 -195 -152 -339 -178 -288 -53 -552 116 -621 396 -29 122 -4 286 62 396 132 219 426 304 659 192 39 -19 70 -33 70 -31 0 1 -13 28 -29 60 -39 76 -50 130 -51 234 0 152 57 280 171 384 119 108 276 148 441 114z"/>
    <path d="M6986 6493 c-19 -39 -111 -121 -142 -129 -13 -3 -24 -7 -24 -8 0 -1 22 -26 50 -55 29 -31 57 -73 67 -102 10 -27 20 -49 23 -48 3 0 21 22 42 48 20 27 59 63 87 81 l50 33 -40 45 c-22 25 -52 72 -68 105 l-29 60 -16 -30z"/>
    <path d="M3370 6419 c-14 -40 -58 -126 -98 -193 -80 -133 -97 -180 -88 -241 15 -93 88 -151 178 -143 51 5 79 24 109 73 l19 30 0 -31 c0 -41 -24 -109 -56 -157 -14 -22 -24 -40 -22 -41 2 -2 60 9 131 23 l127 26 -47 35 c-43 32 -113 120 -113 142 0 5 17 -4 37 -19 96 -74 233 2 233 129 0 27 -6 61 -14 76 -17 33 -84 95 -195 181 -45 36 -103 91 -128 123 -25 32 -47 58 -47 58 -1 0 -13 -32 -26 -71z"/>
    <path d="M5106 3224 c-18 -73 -98 -165 -184 -212 l-52 -29 50 -23 c62 -29 139 -109 170 -176 l23 -51 28 56 c33 66 83 117 160 163 l56 34 -51 27 c-84 44 -144 110 -175 193 -18 47 -18 47 -25 18z"/>
    <path d="M2285 5231 c-59 -25 -101 -104 -92 -174 15 -113 155 -177 248 -114 58 39 81 84 77 145 -8 91 -73 152 -162 151 -28 0 -60 -4 -71 -8z"/>
    <path d="M7791 5221 c-74 -40 -103 -144 -60 -221 82 -146 320 -74 306 93 -10 117 -140 185 -246 128z"/>
    <path d="M1400 5510 c-30 -5 -95 -14 -144 -21 -124 -17 -134 -27 -147 -149 -13 -116 -6 -573 9 -612 6 -15 21 -34 34 -42 24 -15 344 -63 355 -53 3 3 -3 84 -12 179 -14 139 -17 219 -11 408 4 129 9 250 12 268 7 36 7 36 -96 22z"/>
    <path d="M8736 5511 c-4 -6 -1 -93 5 -195 11 -177 3 -465 -17 -633 l-7 -53 32 0 c34 0 283 37 314 46 36 11 48 60 58 232 11 203 -3 494 -26 528 -23 35 -40 41 -170 58 -66 9 -134 18 -152 21 -17 3 -34 1 -37 -4z"/>
  </g>
</svg>